<?xml version="1.0" encoding="utf-8"?>
<!-- Generator: Adobe Illustrator 23.0.6, SVG Export Plug-In . SVG Version: 6.00 Build 0)  -->
<svg version="1.1" id="Layer_1" xmlns="http://www.w3.org/2000/svg" xmlns:xlink="http://www.w3.org/1999/xlink" x="0px" y="0px"
	 viewBox="0 0 40.8 41" style="enable-background:new 0 0 40.8 41;" xml:space="preserve">
<style type="text/css">
	.st0{fill:#406633;}
</style>
<title>orthogon</title>
<path class="st0" d="M0.5,0h18.1c0.3,0,0.5,0.2,0.5,0.5v40c0,0.3-0.2,0.5-0.5,0.5H0.5C0.2,41,0,40.8,0,40.5v-40C0,0.2,0.2,0,0.5,0z"
	/>
<path class="st0" d="M21.1,21.8h19.2c0.3,0,0.5,0.2,0.5,0.5v18.2c0,0.3-0.2,0.5-0.5,0.5H21.1c-0.3,0-0.5-0.2-0.5-0.5V22.3
	C20.6,22,20.8,21.8,21.1,21.8z"/>
<path class="st0" d="M21.7,0h18c0.6,0,1.1,0.2,1.1,0.5v19.2c0,0.3-0.5,0.5-1.1,0.5h-18c-0.6,0-1.1-0.2-1.1-0.5V0.5
	C20.6,0.2,21.1,0,21.7,0z"/>
</svg>
